<svg xmlns="http://www.w3.org/2000/svg" viewBox="0 0 256 256">
  <rect width="256" height="256" fill="#1e88e5"/>
  <rect x="48" y="64" width="160" height="144" rx="8" fill="#ffffff"/>
  <rect x="48" y="64" width="160" height="40" rx="8" fill="#0d47a1"/>
  <rect x="48" y="92" width="160" height="12" fill="#0d47a1"/>
  <rect x="72" y="48" width="12" height="32" rx="6" fill="#0d47a1"/>
  <rect x="172" y="48" width="12" height="32" rx="6" fill="#0d47a1"/>
  <circle cx="88" cy="136" r="8" fill="#43a047"/>
  <circle cx="128" cy="136" r="8" fill="#43a047"/>
  <circle cx="168" cy="136" r="8" fill="#43a047"/>
  <circle cx="88" cy="168" r="8" fill="#43a047"/>
  <circle cx="128" cy="168" r="8" fill="#43a047"/>
  <circle cx="168" cy="168" r="8" fill="#43a047"/>
  <circle cx="108" cy="152" r="16" fill="#2e7d32"/>
  <path d="M108 144 L108 152 L100 160 L116 160 Z" fill="#ffffff"/>
  <circle cx="148" cy="152" r="16" fill="#2e7d32"/>
  <path d="M148 144 L148 152 L140 160 L156 160 Z" fill="#ffffff"/>
</svg>